# Blender v2.78 (sub 0) OBJ File: 'BasicTank.blend'
# www.blender.org
mtllib BasicTank.mtl
o Turret_Cube.003
v -0.354931 0.613816 0.359411
v -0.354931 0.894071 0.359411
v -0.354931 0.613816 -0.359411
v -0.354931 0.894071 -0.359411
v 0.354931 0.613816 0.359411
v 0.354931 0.894071 0.359411
v 0.354931 0.613816 -0.359411
v 0.354931 0.894071 -0.359411
v -0.282124 0.979669 0.285685
v -0.282124 0.979669 -0.285685
v 0.282124 0.979669 -0.285685
v 0.282124 0.979669 0.285685
v -0.282124 0.979669 0.285685
v -0.282124 0.979669 -0.285685
v 0.282124 0.979669 -0.285685
v 0.282124 0.979669 0.285685
vn -1.0000 0.0000 0.0000
vn 0.0000 0.0000 -1.0000
vn 1.0000 0.0000 0.0000
vn 0.0000 0.0000 1.0000
vn 0.0000 -1.0000 0.0000
vn 0.0000 0.6526 -0.7577
vn 0.7617 0.6479 0.0000
vn -0.7617 0.6479 0.0000
vn 0.0000 0.6526 0.7577
vn 0.0000 1.0000 0.0000
usemtl None
s off
f 1//1 2//1 4//1 3//1
f 3//2 4//2 8//2 7//2
f 7//3 8//3 6//3 5//3
f 5//4 6//4 2//4 1//4
f 3//5 7//5 5//5 1//5
f 8//6 4//6 10//6 11//6
f 12//4 11//4 15//4 16//4
f 6//7 8//7 11//7 12//7
f 4//8 2//8 9//8 10//8
f 2//9 6//9 12//9 9//9
f 15//10 14//10 13//10 16//10
f 10//4 9//4 13//4 14//4
f 9//4 12//4 16//4 13//4
f 11//4 10//4 14//4 15//4
o Barrel_Cube.004
v -0.076565 0.669105 1.029888
v -0.076565 0.824736 1.029888
v -0.076565 0.669105 0.298277
v -0.076565 0.824736 0.298277
v 0.076565 0.669105 1.029888
v 0.076565 0.824736 1.029888
v 0.076565 0.669105 0.298277
v 0.076565 0.824736 0.298277
vn -1.0000 0.0000 0.0000
vn 0.0000 0.0000 -1.0000
vn 1.0000 0.0000 0.0000
vn 0.0000 0.0000 1.0000
vn 0.0000 -1.0000 0.0000
vn 0.0000 1.0000 0.0000
usemtl None
s off
f 17//11 18//11 20//11 19//11
f 19//12 20//12 24//12 23//12
f 23//13 24//13 22//13 21//13
f 21//14 22//14 18//14 17//14
f 19//15 23//15 21//15 17//15
f 24//16 20//16 18//16 22//16
o BodyCore_Cube
v 0.400000 0.174362 -0.822329
v 0.400000 0.174362 0.822329
v -0.400000 0.174362 0.822329
v -0.400000 0.174362 -0.822330
v 0.400000 0.533343 -0.822329
v 0.400000 0.533343 0.822330
v -0.400000 0.533343 0.822329
v -0.400000 0.533343 -0.822329
v 0.331834 0.607203 -0.682192
v 0.331834 0.607203 0.682193
v -0.331834 0.607203 -0.682192
v -0.331834 0.607203 0.682192
v 0.299939 0.118269 -0.616621
v 0.299939 0.118269 0.616621
v -0.299939 0.118269 -0.616622
v -0.299939 0.118269 0.616621
vn -0.4890 -0.8723 -0.0000
vn -0.0000 0.8846 0.4663
vn 1.0000 0.0000 0.0000
vn -0.0000 -0.0000 1.0000
vn -1.0000 -0.0000 -0.0000
vn 0.0000 0.0000 -1.0000
vn 0.0000 1.0000 0.0000
vn 0.7349 0.6782 0.0000
vn -0.7349 0.6782 -0.0000
vn 0.0000 0.8846 -0.4663
vn 0.0000 -1.0000 0.0000
vn -0.0000 -0.9648 0.2631
vn 0.0000 -0.9648 -0.2631
vn 0.4890 -0.8723 0.0000
usemtl Material
s off
f 27//17 28//17 39//17 40//17
f 31//18 30//18 34//18 36//18
f 25//19 29//19 30//19 26//19
f 26//20 30//20 31//20 27//20
f 27//21 31//21 32//21 28//21
f 29//22 25//22 28//22 32//22
f 33//23 35//23 36//23 34//23
f 30//24 29//24 33//24 34//24
f 32//25 31//25 36//25 35//25
f 29//26 32//26 35//26 33//26
f 37//27 38//27 40//27 39//27
f 26//28 27//28 40//28 38//28
f 28//29 25//29 37//29 39//29
f 25//30 26//30 38//30 37//30
o TrackL_Cube.002
v -0.878087 0.003853 0.684261
v -0.824742 0.456447 0.524227
v -0.878087 0.003853 -0.684261
v -0.824742 0.456447 -0.524227
v -0.421913 0.003853 0.684261
v -0.475258 0.456447 0.524227
v -0.421913 0.003853 -0.684261
v -0.475258 0.456447 -0.524227
v -0.900000 0.340520 0.750000
v -0.900000 0.340520 -0.750000
v -0.400000 0.340520 -0.750000
v -0.400000 0.340520 0.750000
v -0.900000 0.125053 -0.750000
v -0.400000 0.125053 -0.750000
v -0.400000 0.125053 0.750000
v -0.900000 0.125053 0.750000
vn -0.8388 0.5445 0.0000
vn 0.0000 0.8896 -0.4568
vn 0.8388 0.5445 0.0000
vn 0.0000 0.8896 0.4568
vn 0.0000 -1.0000 0.0000
vn 0.0000 1.0000 0.0000
vn 0.0000 0.0000 1.0000
vn 1.0000 0.0000 0.0000
vn 0.0000 0.0000 -1.0000
vn -1.0000 0.0000 0.0000
vn -0.9840 -0.1779 0.0000
vn 0.0000 -0.4768 -0.8790
vn 0.9840 -0.1779 0.0000
vn 0.0000 -0.4768 0.8790
usemtl None
s off
f 49//31 42//31 44//31 50//31
f 50//32 44//32 48//32 51//32
f 51//33 48//33 46//33 52//33
f 52//34 46//34 42//34 49//34
f 43//35 47//35 45//35 41//35
f 48//36 44//36 42//36 46//36
f 55//37 52//37 49//37 56//37
f 54//38 51//38 52//38 55//38
f 53//39 50//39 51//39 54//39
f 56//40 49//40 50//40 53//40
f 41//41 56//41 53//41 43//41
f 43//42 53//42 54//42 47//42
f 47//43 54//43 55//43 45//43
f 45//44 55//44 56//44 41//44
o TrackR_Cube.001
v 0.421913 0.003853 0.684261
v 0.475258 0.456447 0.524227
v 0.421913 0.003853 -0.684261
v 0.475258 0.456447 -0.524227
v 0.878087 0.003853 0.684261
v 0.824742 0.456447 0.524227
v 0.878087 0.003853 -0.684261
v 0.824742 0.456447 -0.524227
v 0.400000 0.340520 0.750000
v 0.400000 0.340520 -0.750000
v 0.900000 0.340520 -0.750000
v 0.900000 0.340520 0.750000
v 0.400000 0.125053 -0.750000
v 0.900000 0.125053 -0.750000
v 0.900000 0.125053 0.750000
v 0.400000 0.125053 0.750000
vn -0.8388 0.5445 0.0000
vn 0.0000 0.8896 -0.4568
vn 0.8388 0.5445 0.0000
vn 0.0000 0.8896 0.4568
vn 0.0000 -1.0000 0.0000
vn 0.0000 1.0000 0.0000
vn 0.0000 0.0000 1.0000
vn 1.0000 0.0000 0.0000
vn 0.0000 0.0000 -1.0000
vn -1.0000 0.0000 0.0000
vn -0.9840 -0.1779 0.0000
vn 0.0000 -0.4768 -0.8790
vn 0.9840 -0.1779 0.0000
vn 0.0000 -0.4768 0.8790
usemtl None
s off
f 65//45 58//45 60//45 66//45
f 66//46 60//46 64//46 67//46
f 67//47 64//47 62//47 68//47
f 68//48 62//48 58//48 65//48
f 59//49 63//49 61//49 57//49
f 64//50 60//50 58//50 62//50
f 71//51 68//51 65//51 72//51
f 70//52 67//52 68//52 71//52
f 69//53 66//53 67//53 70//53
f 72//54 65//54 66//54 69//54
f 57//55 72//55 69//55 59//55
f 59//56 69//56 70//56 63//56
f 63//57 70//57 71//57 61//57
f 61//58 71//58 72//58 57//58
