# Blender v2.78 (sub 0) OBJ File: 'BasicTank.blend'
# www.blender.org
mtllib BasicTankTurret.mtl
o Turret_Cube.003
v -0.354931 0.613816 0.359411
v -0.354931 0.894071 0.359411
v -0.354931 0.613816 -0.359411
v -0.354931 0.894071 -0.359411
v 0.354931 0.613816 0.359411
v 0.354931 0.894071 0.359411
v 0.354931 0.613816 -0.359411
v 0.354931 0.894071 -0.359411
v -0.282124 0.979669 0.285685
v -0.282124 0.979669 -0.285685
v 0.282124 0.979669 -0.285685
v 0.282124 0.979669 0.285685
v -0.282124 0.979669 0.285685
v -0.282124 0.979669 -0.285685
v 0.282124 0.979669 -0.285685
v 0.282124 0.979669 0.285685
vn -1.0000 0.0000 0.0000
vn 0.0000 0.0000 -1.0000
vn 1.0000 0.0000 0.0000
vn 0.0000 0.0000 1.0000
vn 0.0000 -1.0000 0.0000
vn 0.0000 0.6526 -0.7577
vn 0.7617 0.6479 0.0000
vn -0.7617 0.6479 0.0000
vn 0.0000 0.6526 0.7577
vn 0.0000 1.0000 0.0000
usemtl None
s off
f 1//1 2//1 4//1 3//1
f 3//2 4//2 8//2 7//2
f 7//3 8//3 6//3 5//3
f 5//4 6//4 2//4 1//4
f 3//5 7//5 5//5 1//5
f 8//6 4//6 10//6 11//6
f 12//4 11//4 15//4 16//4
f 6//7 8//7 11//7 12//7
f 4//8 2//8 9//8 10//8
f 2//9 6//9 12//9 9//9
f 15//10 14//10 13//10 16//10
f 10//4 9//4 13//4 14//4
f 9//4 12//4 16//4 13//4
f 11//4 10//4 14//4 15//4
o Barrel_Cube.004
v -0.076565 0.669105 1.029888
v -0.076565 0.824736 1.029888
v -0.076565 0.669105 0.298277
v -0.076565 0.824736 0.298277
v 0.076565 0.669105 1.029888
v 0.076565 0.824736 1.029888
v 0.076565 0.669105 0.298277
v 0.076565 0.824736 0.298277
vn -1.0000 0.0000 0.0000
vn 0.0000 0.0000 -1.0000
vn 1.0000 0.0000 0.0000
vn 0.0000 0.0000 1.0000
vn 0.0000 -1.0000 0.0000
vn 0.0000 1.0000 0.0000
usemtl None
s off
f 17//11 18//11 20//11 19//11
f 19//12 20//12 24//12 23//12
f 23//13 24//13 22//13 21//13
f 21//14 22//14 18//14 17//14
f 19//15 23//15 21//15 17//15
f 24//16 20//16 18//16 22//16
